<svg xmlns="http://www.w3.org/2000/svg" viewBox="0 0 1200 500"><defs><linearGradient id="s" x1="0" y1="0" x2="0" y2="1"><stop stop-color="#231b39"/><stop offset=".52" stop-color="#4c2138"/><stop offset="1" stop-color="#130d16"/></linearGradient><radialGradient id="g"><stop stop-color="#f2d98f" stop-opacity=".9"/><stop offset="1" stop-color="#f2d98f" stop-opacity="0"/></radialGradient></defs><rect width="1200" height="500" fill="url(#s)"/><circle cx="890" cy="125" r="110" fill="url(#g)" opacity=".35"/><g fill="#08080b"><path d="M0 410h70v-65h42v65h48v-120h55v120h45v-80h75v80h42v-175h68v175h50v-105h74v105h45v-210h75v210h45v-95h80v95h40V285h70v125h45V230h100v180h56v-75h95v75h50v90H0z"/><path d="M545 410l34-235 34 235z"/></g><g fill="#d4b365" opacity=".55"><circle cx="93" cy="365" r="3"/><circle cx="196" cy="315" r="3"/><circle cx="411" cy="265" r="3"/><circle cx="676" cy="230" r="3"/><circle cx="916" cy="275" r="3"/><circle cx="1038" cy="315" r="3"/></g></svg>
